<?xml version="1.0" encoding="utf-8"?>
<!-- Generator: Adobe Illustrator 25.2.1, SVG Export Plug-In . SVG Version: 6.00 Build 0)  -->
<svg version="1.1" id="Capa_1" xmlns="http://www.w3.org/2000/svg" xmlns:xlink="http://www.w3.org/1999/xlink" x="0px" y="0px"
	 viewBox="0 0 260.7 185.5" style="enable-background:new 0 0 260.7 185.5;" xml:space="preserve">
<style type="text/css">
	.st0{fill-rule:evenodd;clip-rule:evenodd;fill:#00376B;}
	.st1{fill-rule:evenodd;clip-rule:evenodd;fill:#1D1D1B;}
	.st2{fill-rule:evenodd;clip-rule:evenodd;fill:#FFCD00;}
	.st3{fill-rule:evenodd;clip-rule:evenodd;fill:#FFFFFF;}
	.st4{fill:none;stroke:#242422;stroke-width:0.661;stroke-miterlimit:22.926;}
</style>
<g>
	<path class="st0" d="M178.3,133.5H82.4c-5.4,0-9.7-4.3-9.7-9.7v-69c0-5.4,4.3-9.7,9.7-9.7h95.9c5.4,0,9.7,4.3,9.7,9.7v69
		C188,129.1,183.7,133.5,178.3,133.5z"/>
	<g>
		<path class="st1" d="M145.7,79.8v20.9h3.1c2.6,0,4.5-0.3,5.6-0.8c1.1-0.5,2-1.5,2.6-2.9c0.6-1.4,0.9-3.6,0.9-6.7
			c0-4.1-0.7-6.8-2.1-8.3c-1.4-1.5-3.7-2.2-7-2.2H145.7z M133.2,71.1h18.6c3.7,0,6.6,0.5,8.9,1.4c2.2,0.9,4.1,2.3,5.6,4
			c1.5,1.8,2.5,3.8,3.2,6.1c0.7,2.3,1,4.8,1,7.4c0,4.1-0.5,7.3-1.5,9.5c-1,2.3-2.3,4.1-4.1,5.7c-1.7,1.5-3.6,2.5-5.6,3
			c-2.7,0.7-5.2,1-7.4,1h-18.6V71.1z M88.3,71.1h13.3l9.9,8l10.5-8h11.8v38.3H121V88l-10,11.3l-0.6,0.2l-8.9-10.9v20.9H88.3V71.1z"
			/>
		<path class="st2" d="M147.7,77.8v20.9h3.1c2.6,0,4.5-0.3,5.6-0.8c1.1-0.5,2-1.5,2.6-2.9c0.6-1.4,0.9-3.6,0.9-6.6
			c0-4.1-0.7-6.8-2.1-8.3c-1.4-1.5-3.7-2.2-7-2.2H147.7z M135.2,69.1h18.6c3.7,0,6.6,0.5,8.9,1.4c2.2,0.9,4.1,2.3,5.6,4
			c1.5,1.8,2.5,3.8,3.2,6.1c0.7,2.3,1,4.8,1,7.4c0,4.1-0.5,7.3-1.5,9.5c-1,2.3-2.3,4.1-4.1,5.7c-1.7,1.5-3.6,2.5-5.6,3
			c-2.7,0.7-5.2,1-7.4,1h-18.6V69.1z M90.3,69.1h13.3l9.9,8l10.5-8h11.8v38.3H123V86l-10,11.3l-0.6,0.2l-8.9-10.9v20.9H90.3V69.1z"
			/>
		<polygon class="st1" points="127.7,33.2 128.7,35.7 130.7,37.2 132,39.9 131.3,44.7 132.3,61.7 135.3,61.4 136.9,58.7 139.5,57.2 
			141.5,55.9 144.1,55.9 146.4,54.4 149.4,52 152,50.2 154.6,48.7 158.2,46 160.2,43.5 163.8,42 166.4,39.9 169,41.7 169,44.7 
			167.1,46.3 162.1,49.3 156.6,53.2 154.3,55.9 150.7,56.5 149,58.4 145.8,59.9 144.1,61.4 140.5,64.1 136.6,66.8 133.3,69 
			133,74.7 133,82 133,89.8 134.3,99.8 135.6,107.7 134.9,114.1 135.9,120.1 137.2,128.9 137.2,131 136.9,135.6 137.6,145.5 
			136.2,151 137.2,153.4 131.3,151 130,148.6 131.7,127.1 130.7,118.6 129,113.2 129,103.5 127.4,97.7 127.4,89.5 127.1,74.4 
			126.1,71.4 121.5,73.2 117.2,75.9 115.6,79.2 111,82.3 104.8,85.3 99.5,88.6 94.3,92.3 91.3,93.5 89,93.5 88.4,92 88.4,89.5 
			92.6,87.1 98.5,84.1 103.5,80.2 107.4,76.8 111.3,72.9 113.3,71.7 114.9,69.3 118.5,67.1 121.2,65.6 126.1,64.1 125.1,41.1 
			124.1,36.9 		"/>
		<polygon class="st3" points="130.3,32.1 131.3,34.5 133.3,36 134.6,38.7 133.9,43.6 134.9,60.5 137.9,60.2 139.5,57.5 142.1,56 
			144.1,54.8 146.7,54.8 149,53.3 152,50.9 154.6,49 157.2,47.5 160.8,44.8 162.8,42.4 166.4,40.9 169,38.7 171.6,40.6 171.6,43.6 
			169.7,45.1 164.8,48.1 159.2,52.1 156.9,54.8 153.3,55.4 151.7,57.2 148.4,58.7 146.7,60.2 143.1,63 139.2,65.7 135.9,67.8 
			135.6,73.6 135.6,80.8 135.6,88.7 136.9,98.7 138.2,106.6 137.6,112.9 138.5,119 139.8,127.7 139.8,129.9 139.5,134.4 
			140.2,144.4 138.9,149.8 139.8,152.3 133.9,149.8 132.6,147.4 134.3,125.9 133.3,117.5 131.7,112 131.7,102.3 130,96.6 130,88.4 
			129.7,73.3 128.7,70.2 124.1,72 119.8,74.8 118.2,78.1 113.6,81.1 107.4,84.2 102.1,87.5 96.9,91.1 93.9,92.3 91.7,92.3 91,90.8 
			91,88.4 95.3,86 101.2,82.9 106.1,79 110,75.7 113.9,71.7 115.9,70.5 117.6,68.1 121.2,66 123.8,64.5 128.7,63 127.7,40 
			126.7,35.7 		"/>
		<polygon class="st4" points="130.3,32.1 131.3,34.5 133.3,36 134.6,38.7 133.9,43.6 134.9,60.5 137.9,60.2 139.5,57.5 142.1,56 
			144.1,54.8 146.7,54.8 149,53.3 152,50.9 154.6,49 157.2,47.5 160.8,44.8 162.8,42.4 166.4,40.9 169,38.7 171.6,40.6 171.6,43.6 
			169.7,45.1 164.8,48.1 159.2,52.1 156.9,54.8 153.3,55.4 151.7,57.2 148.4,58.7 146.7,60.2 143.1,63 139.2,65.7 135.9,67.8 
			135.6,73.6 135.6,80.8 135.6,88.7 136.9,98.7 138.2,106.6 137.6,112.9 138.5,119 139.8,127.7 139.8,129.9 139.5,134.4 
			140.2,144.4 138.9,149.8 139.8,152.3 133.9,149.8 132.6,147.4 134.3,125.9 133.3,117.5 131.7,112 131.7,102.3 130,96.6 130,88.4 
			129.7,73.3 128.7,70.2 124.1,72 119.8,74.8 118.2,78.1 113.6,81.1 107.4,84.2 102.1,87.5 96.9,91.1 93.9,92.3 91.7,92.3 91,90.8 
			91,88.4 95.3,86 101.2,82.9 106.1,79 110,75.7 113.9,71.7 115.9,70.5 117.6,68.1 121.2,66 123.8,64.5 128.7,63 127.7,40 
			126.7,35.7 		"/>
	</g>
</g>
</svg>
