<svg id="Capa_1" data-name="Capa 1" xmlns="http://www.w3.org/2000/svg" viewBox="0 0 260.7 185.5"><defs><style>.cls-1{fill:#00376b;}.cls-1,.cls-2,.cls-3,.cls-4{fill-rule:evenodd;}.cls-2{fill:#1d1d1b;}.cls-3{fill:#ffcd00;}.cls-4{fill:#fff;}.cls-5{fill:none;stroke:#242422;stroke-miterlimit:22.93;stroke-width:0.66px;}</style></defs><path class="cls-1" d="M178.3,133.5H82.4a9.65,9.65,0,0,1-9.7-9.7v-69a9.65,9.65,0,0,1,9.7-9.7h95.9a9.65,9.65,0,0,1,9.7,9.7v69A9.71,9.71,0,0,1,178.3,133.5Z"/><path class="cls-2" d="M145.7,79.8v20.9h3.1a14.7,14.7,0,0,0,5.6-.8A5.36,5.36,0,0,0,157,97a18.13,18.13,0,0,0,.9-6.7c0-4.1-.7-6.8-2.1-8.3s-3.7-2.2-7-2.2Zm-12.5-8.7h18.6a24.4,24.4,0,0,1,8.9,1.4,15.12,15.12,0,0,1,5.6,4,17,17,0,0,1,3.2,6.1,25.45,25.45,0,0,1,1,7.4c0,4.1-.5,7.3-1.5,9.5a15.73,15.73,0,0,1-4.1,5.7,13.33,13.33,0,0,1-5.6,3,29.67,29.67,0,0,1-7.4,1H133.3V71.1Zm-44.9,0h13.3l9.9,8,10.5-8h11.8v38.3H121V88L111,99.3l-.6.2-8.9-10.9v20.9H88.3Z"/><path class="cls-3" d="M147.7,77.8V98.7h3.1a14.7,14.7,0,0,0,5.6-.8A5.36,5.36,0,0,0,159,95a17.88,17.88,0,0,0,.9-6.6c0-4.1-.7-6.8-2.1-8.3s-3.7-2.2-7-2.2h-3.1Zm-12.5-8.7h18.6a24.4,24.4,0,0,1,8.9,1.4,15.12,15.12,0,0,1,5.6,4,17,17,0,0,1,3.2,6.1,25.45,25.45,0,0,1,1,7.4c0,4.1-.5,7.3-1.5,9.5a15.73,15.73,0,0,1-4.1,5.7,13.33,13.33,0,0,1-5.6,3,29.67,29.67,0,0,1-7.4,1H135.3V69.1Zm-44.9,0h13.3l9.9,8,10.5-8h11.8v38.3H123V86L113,97.3l-.6.2-8.9-10.9v20.9H90.3Z"/><polygon class="cls-2" points="127.7 33.2 128.7 35.7 130.7 37.2 132 39.9 131.3 44.7 132.3 61.7 135.3 61.4 136.9 58.7 139.5 57.2 141.5 55.9 144.1 55.9 146.4 54.4 149.4 52 152 50.2 154.6 48.7 158.2 46 160.2 43.5 163.8 42 166.4 39.9 169 41.7 169 44.7 167.1 46.3 162.1 49.3 156.6 53.2 154.3 55.9 150.7 56.5 149 58.4 145.8 59.9 144.1 61.4 140.5 64.1 136.6 66.8 133.3 69 133 74.7 133 82 133 89.8 134.3 99.8 135.6 107.7 134.9 114.1 135.9 120.1 137.2 128.9 137.2 131 136.9 135.6 137.6 145.5 136.2 151 137.2 153.4 131.3 151 130 148.6 131.7 127.1 130.7 118.6 129 113.2 129 103.5 127.4 97.7 127.4 89.5 127.1 74.4 126.1 71.4 121.5 73.2 117.2 75.9 115.6 79.2 111 82.3 104.8 85.3 99.5 88.6 94.3 92.3 91.3 93.5 89 93.5 88.4 92 88.4 89.5 92.6 87.1 98.5 84.1 103.5 80.2 107.4 76.8 111.3 72.9 113.3 71.7 114.9 69.3 118.5 67.1 121.2 65.6 126.1 64.1 125.1 41.1 124.1 36.9 127.7 33.2"/><polygon class="cls-4" points="130.3 32.1 131.3 34.5 133.3 36 134.6 38.7 133.9 43.6 134.9 60.5 137.9 60.2 139.5 57.5 142.1 56 144.1 54.8 146.7 54.8 149 53.3 152 50.9 154.6 49 157.2 47.5 160.8 44.8 162.8 42.4 166.4 40.9 169 38.7 171.6 40.6 171.6 43.6 169.7 45.1 164.8 48.1 159.2 52.1 156.9 54.8 153.3 55.4 151.7 57.2 148.4 58.7 146.7 60.2 143.1 63 139.2 65.7 135.9 67.8 135.6 73.6 135.6 80.8 135.6 88.7 136.9 98.7 138.2 106.6 137.6 112.9 138.5 119 139.8 127.7 139.8 129.9 139.5 134.4 140.2 144.4 138.9 149.8 139.8 152.3 133.9 149.8 132.6 147.4 134.3 125.9 133.3 117.5 131.7 112 131.7 102.3 130 96.6 130 88.4 129.7 73.3 128.7 70.2 124.1 72 119.8 74.8 118.2 78.1 113.6 81.1 107.4 84.2 102.1 87.5 96.9 91.1 93.9 92.3 91.7 92.3 91 90.8 91 88.4 95.3 86 101.2 82.9 106.1 79 110 75.7 113.9 71.7 115.9 70.5 117.6 68.1 121.2 66 123.8 64.5 128.7 63 127.7 40 126.7 35.7 130.3 32.1"/><polygon class="cls-5" points="130.3 32.1 131.3 34.5 133.3 36 134.6 38.7 133.9 43.6 134.9 60.5 137.9 60.2 139.5 57.5 142.1 56 144.1 54.8 146.7 54.8 149 53.3 152 50.9 154.6 49 157.2 47.5 160.8 44.8 162.8 42.4 166.4 40.9 169 38.7 171.6 40.6 171.6 43.6 169.7 45.1 164.8 48.1 159.2 52.1 156.9 54.8 153.3 55.4 151.7 57.2 148.4 58.7 146.7 60.2 143.1 63 139.2 65.7 135.9 67.8 135.6 73.6 135.6 80.8 135.6 88.7 136.9 98.7 138.2 106.6 137.6 112.9 138.5 119 139.8 127.7 139.8 129.9 139.5 134.4 140.2 144.4 138.9 149.8 139.8 152.3 133.9 149.8 132.6 147.4 134.3 125.9 133.3 117.5 131.7 112 131.7 102.3 130 96.6 130 88.4 129.7 73.3 128.7 70.2 124.1 72 119.8 74.8 118.2 78.1 113.6 81.1 107.4 84.2 102.1 87.5 96.9 91.1 93.9 92.3 91.7 92.3 91 90.8 91 88.4 95.3 86 101.2 82.9 106.1 79 110 75.7 113.9 71.7 115.9 70.5 117.6 68.1 121.2 66 123.8 64.5 128.7 63 127.7 40 126.7 35.7 130.3 32.1"/></svg>